<svg width="18" height="20" viewBox="0 0 18 20" fill="none" xmlns="http://www.w3.org/2000/svg">
<g clip-path="url(#clip0)">
<path d="M4.34046 13.0286C4.34046 12.65 4.20185 12.3268 3.92462 12.0589C3.64739 11.7911 3.31288 11.6571 2.92106 11.6571C2.52925 11.6571 2.19473 11.7911 1.91751 12.0589C1.64028 12.3268 1.50167 12.65 1.50167 13.0286C1.50167 13.4071 1.64028 13.7303 1.91751 13.9982C2.19473 14.2661 2.52925 14.4 2.92106 14.4C3.31288 14.4 3.64739 14.2661 3.92462 13.9982C4.20185 13.7303 4.34046 13.4071 4.34046 13.0286ZM15.6956 13.0286C15.6956 12.65 15.557 12.3268 15.2798 12.0589C15.0025 11.7911 14.668 11.6571 14.2762 11.6571C13.8844 11.6571 13.5499 11.7911 13.2727 12.0589C12.9954 12.3268 12.8568 12.65 12.8568 13.0286C12.8568 13.4071 12.9954 13.7303 13.2727 13.9982C13.5499 14.2661 13.8844 14.4 14.2762 14.4C14.668 14.4 15.0025 14.2661 15.2798 13.9982C15.557 13.7303 15.6956 13.4071 15.6956 13.0286ZM15.1855 8.78571L14.3871 4.67143C14.3501 4.50714 14.267 4.37321 14.1376 4.26964C14.0082 4.16607 13.8585 4.11428 13.6885 4.11428H3.50878C3.33875 4.11428 3.18905 4.16607 3.05968 4.26964C2.9303 4.37321 2.84714 4.50714 2.81017 4.67143L2.01176 8.78571C1.9748 8.99999 2.02655 9.18928 2.16701 9.35357C2.30747 9.51785 2.48859 9.59999 2.71037 9.59999H14.4869C14.7087 9.59999 14.8898 9.51785 15.0303 9.35357C15.1707 9.18928 15.2225 8.99999 15.1855 8.78571ZM12.6794 2.22857C12.6794 2.08571 12.6276 1.96428 12.5242 1.86428C12.4207 1.76428 12.295 1.71428 12.1471 1.71428H5.05015C4.9023 1.71428 4.77663 1.76428 4.67313 1.86428C4.56963 1.96428 4.51788 2.08571 4.51788 2.22857C4.51788 2.37143 4.56963 2.49286 4.67313 2.59286C4.77663 2.69286 4.9023 2.74286 5.05015 2.74286H12.1471C12.295 2.74286 12.4207 2.69286 12.5242 2.59286C12.6276 2.49286 12.6794 2.37143 12.6794 2.22857ZM17.115 9.99642V16.4571H15.6956V17.8286C15.6956 18.2071 15.557 18.5303 15.2798 18.7982C15.0025 19.0661 14.668 19.2 14.2762 19.2C13.8844 19.2 13.5499 19.0661 13.2727 18.7982C12.9954 18.5303 12.8568 18.2071 12.8568 17.8286V16.4571H4.34046V17.8286C4.34046 18.2071 4.20185 18.5303 3.92462 18.7982C3.64739 19.0661 3.31288 19.2 2.92106 19.2C2.52925 19.2 2.19473 19.0661 1.91751 18.7982C1.64028 18.5303 1.50167 18.2071 1.50167 17.8286V16.4571H0.0822754V9.99642C0.0822754 9.19642 0.174684 8.39999 0.359501 7.60714L1.50167 2.74286C1.5682 2.18571 1.9286 1.69643 2.58285 1.275C3.2371 0.853571 4.08726 0.535714 5.13332 0.321428C6.17939 0.107143 7.33449 0 8.59864 0C9.86279 0 11.0179 0.107143 12.064 0.321428C13.11 0.535714 13.9602 0.853571 14.6144 1.275C15.2687 1.69643 15.6291 2.18571 15.6956 2.74286L16.86 7.60714C17.03 8.33571 17.115 9.13214 17.115 9.99642Z" fill="#1D2E5B"/>
</g>
<defs>
<clipPath id="clip0">
<rect width="17.0398" height="19.2" fill="white" transform="translate(0.0795898)"/>
</clipPath>
</defs>
</svg>
