<svg width="13" height="11" viewBox="0 0 13 11" fill="none" xmlns="http://www.w3.org/2000/svg">
<path fill-rule="evenodd" clip-rule="evenodd" d="M6.12766 4.27694L6.81243 2.90705C6.98247 2.56783 7.27736 2.08006 7.69481 1.68571C8.10536 1.29749 8.59711 1.03331 9.19149 1.03331C10.4752 1.03331 11.4894 2.04867 11.4894 3.26924C11.4894 4.19654 11.065 4.85124 10.0586 5.84976C9.80043 6.10551 9.5063 6.38194 9.18077 6.6867C8.33209 7.48306 7.2766 8.47391 6.12766 9.79863C4.97872 8.47391 3.92324 7.48306 3.07455 6.6867C2.74902 6.38194 2.45413 6.10474 2.19677 5.84976C1.1903 4.85124 0.765958 4.19654 0.765958 3.26924C0.765958 2.04867 1.78009 1.03331 3.06383 1.03331C3.65821 1.03331 4.14996 1.29749 4.56051 1.68571C4.97796 2.08006 5.27285 2.56783 5.4429 2.90705L6.12766 4.27694ZM6.42792 10.6264C6.39103 10.6701 6.34505 10.7052 6.29319 10.7293C6.24134 10.7533 6.18484 10.7658 6.12766 10.7658C6.07048 10.7658 6.01399 10.7533 5.96213 10.7293C5.91027 10.7052 5.86429 10.6701 5.82741 10.6264C4.60111 9.16996 3.49123 8.12857 2.57745 7.27172C0.995745 5.78697 0 4.85354 0 3.26924C0 1.61144 1.37106 0.267578 3.06383 0.267578C4.28936 0.267578 5.14647 1.0716 5.67115 1.80517C5.8703 2.08466 6.02196 2.35343 6.12766 2.56477C6.26017 2.30027 6.41279 2.04632 6.58417 1.80517C7.10885 1.07083 7.96596 0.267578 9.19149 0.267578C10.8843 0.267578 12.2553 1.61144 12.2553 3.26924C12.2553 4.85354 11.2596 5.78697 9.67788 7.27172C8.76409 8.12934 7.65421 9.17073 6.42792 10.6256V10.6264Z" fill="#192144"/>
</svg>
