<svg width="16" height="16" viewBox="0 0 16 16" fill="none" xmlns="http://www.w3.org/2000/svg">
<path d="M4 10.8571C4 10.5417 3.86979 10.2723 3.60938 10.0491C3.34896 9.82589 3.03472 9.71429 2.66667 9.71429C2.29861 9.71429 1.98438 9.82589 1.72396 10.0491C1.46354 10.2723 1.33333 10.5417 1.33333 10.8571C1.33333 11.1726 1.46354 11.442 1.72396 11.6652C1.98438 11.8884 2.29861 12 2.66667 12C3.03472 12 3.34896 11.8884 3.60938 11.6652C3.86979 11.442 4 11.1726 4 10.8571ZM14.6667 10.8571C14.6667 10.5417 14.5365 10.2723 14.276 10.0491C14.0156 9.82589 13.7014 9.71429 13.3333 9.71429C12.9653 9.71429 12.651 9.82589 12.3906 10.0491C12.1302 10.2723 12 10.5417 12 10.8571C12 11.1726 12.1302 11.442 12.3906 11.6652C12.651 11.8884 12.9653 12 13.3333 12C13.7014 12 14.0156 11.8884 14.276 11.6652C14.5365 11.442 14.6667 11.1726 14.6667 10.8571ZM14.1875 7.32143L13.4375 3.89286C13.4028 3.75595 13.3247 3.64435 13.2031 3.55804C13.0816 3.47173 12.941 3.42857 12.7813 3.42857H3.21875C3.05903 3.42857 2.9184 3.47173 2.79688 3.55804C2.67535 3.64435 2.59722 3.75595 2.5625 3.89286L1.8125 7.32143C1.77778 7.5 1.82639 7.65774 1.95833 7.79464C2.09028 7.93155 2.26042 8 2.46875 8H13.5313C13.7396 8 13.9097 7.93155 14.0417 7.79464C14.1736 7.65774 14.2222 7.5 14.1875 7.32143ZM11.8333 1.85714C11.8333 1.7381 11.7847 1.6369 11.6875 1.55357C11.5903 1.47024 11.4722 1.42857 11.3333 1.42857H4.66667C4.52778 1.42857 4.40972 1.47024 4.3125 1.55357C4.21528 1.6369 4.16667 1.7381 4.16667 1.85714C4.16667 1.97619 4.21528 2.07738 4.3125 2.16071C4.40972 2.24405 4.52778 2.28571 4.66667 2.28571H11.3333C11.4722 2.28571 11.5903 2.24405 11.6875 2.16071C11.7847 2.07738 11.8333 1.97619 11.8333 1.85714ZM16 8.33036V13.7143H14.6667V14.8571C14.6667 15.1726 14.5365 15.442 14.276 15.6652C14.0156 15.8884 13.7014 16 13.3333 16C12.9653 16 12.651 15.8884 12.3906 15.6652C12.1302 15.442 12 15.1726 12 14.8571V13.7143H4V14.8571C4 15.1726 3.86979 15.442 3.60938 15.6652C3.34896 15.8884 3.03472 16 2.66667 16C2.29861 16 1.98438 15.8884 1.72396 15.6652C1.46354 15.442 1.33333 15.1726 1.33333 14.8571V13.7143H0V8.33036C0 7.66369 0.0868056 7 0.260417 6.33929L1.33333 2.28571C1.39583 1.82143 1.73438 1.41369 2.34896 1.0625C2.96354 0.71131 3.76215 0.446429 4.74479 0.267857C5.72743 0.0892857 6.8125 0 8 0C9.1875 0 10.2726 0.0892857 11.2552 0.267857C12.2378 0.446429 13.0365 0.71131 13.651 1.0625C14.2656 1.41369 14.6042 1.82143 14.6667 2.28571L15.7604 6.33929C15.9201 6.94643 16 7.61012 16 8.33036Z" fill="#1D2E5B"/>
</svg>
