<svg width="12" height="14" viewBox="0 0 12 14" fill="none" xmlns="http://www.w3.org/2000/svg">
<path d="M9.21 3.02538C9.93665 3.02538 10.5257 2.42274 10.5257 1.67935C10.5257 0.935953 9.93665 0.333313 9.21 0.333313C8.48335 0.333313 7.89429 0.935953 7.89429 1.67935C7.89429 2.42274 8.48335 3.02538 9.21 3.02538Z" fill="#1D2E5B"/>
<path d="M8.40546 6.36963C8.55648 6.59985 8.7731 6.77695 9.0259 6.87689C9.2787 6.97682 9.55544 6.99475 9.81854 6.92823L12 6.3703L11.6823 5.06465L9.50079 5.62258L8.59361 4.23145C8.39979 3.93436 8.09898 3.72775 7.75681 3.6567L5.22669 3.13847C4.94364 3.08036 4.64976 3.1192 4.39044 3.24899C4.13112 3.37878 3.92077 3.5923 3.7919 3.85658L2.70117 6.08831L3.87808 6.69066L4.96881 4.45826L6.26281 4.72343L2.91695 10.4286H0V11.7746H2.91695C3.37613 11.7746 3.80834 11.5243 4.04517 11.1211L5.30695 8.97017L8.70742 9.66607L9.90209 13.3333L11.1494 12.9073L9.95537 9.24072C9.88169 9.01561 9.75131 8.81434 9.57738 8.6572C9.40345 8.50005 9.1921 8.39258 8.96464 8.34561L6.96541 7.93709L8.13113 5.94899L8.40546 6.36963V6.36963Z" fill="#1D2E5B"/>
</svg>
