<svg width="14" height="15" viewBox="0 0 14 15" fill="none" xmlns="http://www.w3.org/2000/svg">
<path d="M12.3651 0.218056C11.7968 0.345505 11.2258 0.473553 11.0126 0.821145L9.36167 3.88107L0.535584 5.86042L0.175585 6.83771L6.92389 7.41723L5.77157 10.0655L3.21019 10.64L2.56471 11.6813L4.41095 11.864L4.61925 12.7138C4.71279 13.0151 5.0434 13.2155 5.32621 13.1521L6.18001 12.9606L7.16493 14.5328L7.81041 13.4915L7.18549 10.942L9.04477 8.73191L12.5656 14.518L13.2808 13.7609L11.1281 4.97826L13.1342 2.13848C13.35 1.79029 13.2114 1.22462 13.0721 0.656284C13.0031 0.374773 12.6479 0.154631 12.3651 0.218056Z" fill="#1D2E5B"/>
</svg>
