<svg width="11" height="22" viewBox="0 0 11 22" fill="none" xmlns="http://www.w3.org/2000/svg">
<path d="M7.48786 21.1069H2.12929V11.4319H0V6.64693H2.06643C1.90929 4.47943 2.30214 2.89693 3.26071 1.81693C3.71777 1.33759 4.27461 0.954584 4.89562 0.692419C5.51662 0.430254 6.18812 0.294702 6.86714 0.294434L10.6229 0.294434V4.90693H7.66857C7.49452 5.47104 7.42799 6.06039 7.47214 6.64693H10.615V11.4319H7.47214L7.48786 21.1069ZM3.31571 19.9819H6.28571V10.3069H9.42857V7.79443H6.28571V7.22443C6.28571 5.72443 6.28571 4.38193 7.07143 3.87943L7.22071 3.78193H9.42857V1.41943H6.89857C6.38444 1.41309 5.87465 1.50996 5.40225 1.70377C4.92986 1.89757 4.50541 2.18399 4.15643 2.54443C3.37071 3.46693 3.04857 5.01193 3.29214 7.14943L3.37071 7.77193H1.17857V10.3069H3.31571V19.9819Z" fill="#192144"/>
</svg>
