<svg width="27" height="34" viewBox="0 0 27 34" fill="none" xmlns="http://www.w3.org/2000/svg">
<g clip-path="url(#clip0)">
<path d="M13.6426 0.101228L13.5 0.0859375L0 1.45188V25.3337L13.5 33.0859L27 25.3337V1.45188L13.6426 0.101228ZM25.2344 24.3653L13.5 31.1033L1.76561 24.3653V14.5761L13.4507 21.2886L13.4701 22.505L5.45351 17.9009L5.44295 19.0902L13.4894 23.7571L13.5088 25.0058L5.46408 20.3881L5.45351 21.5774L13.5 26.2443L21.6239 21.5536V20.3644V16.4976L25.2432 14.4113L25.2344 24.3653ZM25.2344 13.1422L22.0147 14.9669L20.5325 15.8163L13.4666 11.7525L13.456 12.9417L19.4957 16.4092L19.4429 16.4398L19.3126 16.5129L18.4536 16.9903L13.4666 14.1293L13.456 15.3185L17.3921 17.5781L16.4591 18.1693L16.438 18.1812L13.4666 16.4908L13.456 17.68L15.4029 18.781L13.4155 19.9328L1.7973 13.2628L13.4349 6.50959L25.2344 13.1422ZM25.2344 11.953L13.4401 5.24049L1.76561 11.9462V2.98771L13.5 1.79846L25.2344 2.98771V11.953Z" fill="#192144"/>
</g>
<defs>
<clipPath id="clip0">
<rect width="27" height="33" fill="white" transform="translate(0 0.0859375)"/>
</clipPath>
</defs>
</svg>
