<svg width="24" height="25" viewBox="0 0 24 25" fill="none" xmlns="http://www.w3.org/2000/svg">
<path fill-rule="evenodd" clip-rule="evenodd" d="M18.7427 16.4663L14.5044 12.5L18.7427 8.53365L18.1648 7.90264L12 13.6719L5.8352 7.90264L5.25725 8.53365L9.49554 12.5L5.25725 16.4663L5.8352 17.0974L10.1217 13.0859L12 14.8438L13.8783 13.0859L18.1648 17.0974L18.7427 16.4663ZM4.48923 6.25C3.69742 6.25 3.05554 6.94884 3.05554 7.80786V17.1921C3.05554 18.0525 3.69222 18.75 4.48923 18.75H19.5107C20.3025 18.75 20.9444 18.0512 20.9444 17.1921V7.80786C20.9444 6.94748 20.3078 6.25 19.5107 6.25H4.48923Z" fill="#FFD74B"/>
</svg>
