<svg width="13" height="8" viewBox="0 0 13 8" fill="none" xmlns="http://www.w3.org/2000/svg">
<path d="M1.1537 0.544338C1.08422 0.622957 1.02909 0.716354 0.991481 0.819178C0.953869 0.922002 0.934509 1.03223 0.934509 1.14356C0.934509 1.25489 0.953869 1.36512 0.991481 1.46794C1.02909 1.57077 1.08422 1.66416 1.1537 1.74278L6.11364 7.36937C6.16886 7.43214 6.23445 7.48194 6.30665 7.51592C6.37886 7.54989 6.45626 7.56738 6.53443 7.56738C6.6126 7.56738 6.69 7.54989 6.76221 7.51592C6.83441 7.48194 6.9 7.43214 6.95522 7.36937L11.9152 1.74278C12.2076 1.41101 12.2076 0.876109 11.9152 0.544337C11.6227 0.212564 11.3156 0.487405 11.0231 0.819177L8.42313 3.78268L6.51516 5.87041L1.71517 0.53708C1.71517 0.53708 1.44019 0.212565 1.1537 0.544338Z" fill="black"/>
</svg>
