<svg width="16" height="16" viewBox="0 0 16 16" fill="none" xmlns="http://www.w3.org/2000/svg">
<path d="M12.125 14C11.5564 14 11.0005 13.8314 10.5277 13.5155C10.0549 13.1996 9.68645 12.7506 9.46885 12.2252C9.25125 11.6999 9.19431 11.1218 9.30524 10.5641C9.41618 10.0064 9.68999 9.49414 10.0921 9.09207C10.4941 8.68999 11.0064 8.41618 11.5641 8.30524C12.1218 8.19431 12.6999 8.25125 13.2252 8.46885C13.7506 8.68645 14.1996 9.05495 14.5155 9.52774C14.8314 10.0005 15 10.5564 15 11.125C14.9992 11.8872 14.696 12.618 14.157 13.157C13.618 13.696 12.8872 13.9992 12.125 14V14ZM12.125 9.25C11.7542 9.25 11.3916 9.35997 11.0833 9.566C10.775 9.77202 10.5346 10.0649 10.3927 10.4075C10.2508 10.7501 10.2137 11.1271 10.286 11.4908C10.3584 11.8545 10.537 12.1886 10.7992 12.4508C11.0614 12.713 11.3955 12.8916 11.7592 12.964C12.1229 13.0363 12.4999 12.9992 12.8425 12.8573C13.1851 12.7154 13.478 12.475 13.684 12.1667C13.89 11.8584 14 11.4958 14 11.125C13.9994 10.6279 13.8017 10.1513 13.4502 9.79982C13.0987 9.44831 12.6221 9.25058 12.125 9.25V9.25Z" fill="#1D2E5B"/>
<path d="M3.875 14C3.30638 14 2.75053 13.8314 2.27774 13.5155C1.80495 13.1996 1.43645 12.7506 1.21885 12.2252C1.00125 11.6999 0.944311 11.1218 1.05524 10.5641C1.16618 10.0064 1.43999 9.49414 1.84207 9.09207C2.24415 8.68999 2.75642 8.41618 3.31412 8.30524C3.87181 8.19431 4.44988 8.25125 4.97522 8.46885C5.50055 8.68645 5.94957 9.05495 6.26548 9.52774C6.58139 10.0005 6.75 10.5564 6.75 11.125C6.74917 11.8872 6.44601 12.618 5.90702 13.157C5.36803 13.696 4.63724 13.9992 3.875 14V14ZM3.875 9.25C3.50416 9.25 3.14165 9.35997 2.83331 9.566C2.52496 9.77202 2.28464 10.0649 2.14273 10.4075C2.00081 10.7501 1.96368 11.1271 2.03603 11.4908C2.10838 11.8545 2.28695 12.1886 2.54918 12.4508C2.8114 12.713 3.14549 12.8916 3.50921 12.964C3.87292 13.0363 4.24992 12.9992 4.59253 12.8573C4.93514 12.7154 5.22798 12.475 5.43401 12.1667C5.64003 11.8584 5.75 11.4958 5.75 11.125C5.74942 10.6279 5.55169 10.1513 5.20019 9.79982C4.84868 9.44831 4.3721 9.25058 3.875 9.25V9.25Z" fill="#1D2E5B"/>
<path d="M10.0001 3.99997C10.1318 4.00043 10.2623 3.97477 10.384 3.92448C10.5057 3.87419 10.6163 3.80027 10.7093 3.70699C10.8023 3.61371 10.8759 3.50292 10.9258 3.38103C10.9757 3.25913 11.0009 3.12856 11.0001 2.99685C11.0015 2.86579 10.9768 2.73576 10.9274 2.61436C10.8781 2.49296 10.805 2.38263 10.7124 2.28981C10.6199 2.19699 10.5098 2.12355 10.3886 2.07378C10.2673 2.02402 10.1374 1.99892 10.0063 1.99997C9.87498 1.99956 9.74487 2.02502 9.62338 2.07489C9.5019 2.12477 9.39143 2.19809 9.29828 2.29065C9.20513 2.38322 9.13113 2.49323 9.08049 2.6144C9.02986 2.73557 9.00359 2.86552 9.00318 2.99685C9.00277 3.12817 9.02823 3.25828 9.0781 3.37977C9.12798 3.50125 9.20129 3.61172 9.29386 3.70487C9.38643 3.79802 9.49644 3.87202 9.61761 3.92265C9.73878 3.97329 9.86873 3.99956 10.0001 3.99997V3.99997Z" fill="#1D2E5B"/>
<path d="M11.4859 6H10.1184C10.096 6.00001 10.074 5.99397 10.0547 5.98254C10.0354 5.9711 10.0195 5.95468 10.0088 5.935L9.01688 4.11719C8.94699 3.9821 8.84628 3.86536 8.72289 3.77643C8.5995 3.6875 8.45691 3.62886 8.30665 3.60528C8.15639 3.5817 8.00269 3.59383 7.85799 3.64069C7.71329 3.68755 7.58166 3.76782 7.47375 3.875L5.29063 6.075C5.10722 6.2622 5.00311 6.51295 5 6.775C5 7.31875 5.39375 7.5125 5.57813 7.62188C6.46875 8.135 7.09594 8.51032 7.44 8.71875C7.45829 8.72989 7.47342 8.74554 7.48392 8.7642C7.49443 8.78285 7.49996 8.8039 7.5 8.82532V10.9853C7.5 11.2544 7.70688 11.4853 7.97594 11.4988C8.04349 11.502 8.111 11.4915 8.17438 11.4679C8.23777 11.4443 8.29571 11.4081 8.3447 11.3615C8.39369 11.3149 8.43271 11.2588 8.45941 11.1967C8.4861 11.1345 8.49991 11.0676 8.5 11V8.3125C8.50005 8.23313 8.48119 8.15488 8.445 8.08424C8.40881 8.0136 8.35632 7.95259 8.29188 7.90625L7.13563 7.07469C7.12111 7.06431 7.10899 7.05093 7.10008 7.03547C7.09116 7.02001 7.08566 7.00282 7.08394 6.98506C7.08223 6.9673 7.08433 6.94937 7.09012 6.93249C7.09591 6.91561 7.10524 6.90016 7.1175 6.88719L8.43 5.4875C8.44346 5.4731 8.46013 5.46209 8.47865 5.45536C8.49718 5.44863 8.51703 5.44638 8.5366 5.44878C8.55616 5.45119 8.57487 5.45819 8.59122 5.46921C8.60756 5.48023 8.62106 5.49496 8.63063 5.51219L9.3125 6.74281C9.35584 6.82083 9.41926 6.88582 9.4962 6.93104C9.57313 6.97627 9.66076 7.00008 9.75 7H11.5C11.5677 7.00008 11.6348 6.9864 11.6971 6.95978C11.7594 6.93316 11.8156 6.89416 11.8623 6.84515C11.9091 6.79614 11.9454 6.73815 11.9691 6.67468C11.9927 6.61121 12.0033 6.5436 12 6.47594C11.9869 6.20688 11.755 6 11.4859 6Z" fill="#1D2E5B"/>
</svg>
