<svg width="21" height="22" viewBox="0 0 21 22" fill="none" xmlns="http://www.w3.org/2000/svg">
<g clip-path="url(#clip0)">
<path d="M16.7831 1.13318C16.0546 1.30639 15.3227 1.48042 15.0504 1.95727L12.9433 6.15589L1.62916 8.84594L1.17076 10.1875L9.82861 11.0062L8.35967 14.6409L5.07624 15.4216L4.25187 16.8502L6.62062 17.1074L6.89073 18.2757C7.01174 18.6899 7.43649 18.9663 7.79903 18.8801L8.89351 18.6199L10.1622 20.7834L10.9866 19.3548L10.1763 15.8499L12.5535 12.8196L17.0895 20.781L18.0042 19.7431L15.2128 7.66925L17.7762 3.77428C18.0519 3.29661 17.8721 2.51895 17.6914 1.73763C17.6019 1.35063 17.1457 1.04698 16.7831 1.13318Z" fill="#101D41"/>
</g>
<defs>
<clipPath id="clip0">
<rect width="20.8265" height="21.12" fill="white"/>
</clipPath>
</defs>
</svg>
