<svg width="23" height="13" viewBox="0 0 23 13" fill="none" xmlns="http://www.w3.org/2000/svg">
<path d="M17.7664 12.046C17.219 12.0336 16.6854 11.8702 16.2232 11.5735C15.7407 11.2438 15.2975 10.8588 14.9026 10.426C14.5761 10.096 14.0345 9.54104 13.8268 9.54104C13.619 9.54104 13.4706 10.231 13.478 10.7185C13.4812 11.055 13.3564 11.3799 13.1293 11.626C12.8712 11.8392 12.5561 11.9698 12.2242 12.001H10.7997C8.75222 11.9555 6.79178 11.1554 5.28708 9.75104C2.55676 7.22354 0.21224 2.39354 0.115789 2.18354C0.0237889 2.0081 -0.0147389 1.80905 0.00506792 1.61149C0.0248747 1.41394 0.102128 1.22675 0.227079 1.07354C0.509857 0.835147 0.867951 0.707387 1.23611 0.71354H4.26321H4.35224C4.6027 0.750479 4.84277 0.839887 5.05708 0.97604C5.25875 1.11274 5.42022 1.30188 5.5245 1.52354C5.8444 2.21584 6.2113 2.88494 6.62256 3.52604C7.5945 5.02604 8.02482 5.37104 8.18063 5.44604C8.35396 4.74274 8.40169 4.0138 8.3216 3.29354C8.3476 2.9655 8.29412 2.63599 8.16579 2.33354C8.00289 2.20182 7.80288 2.12568 7.5945 2.11604L7.05289 1.59854C6.94901 1.10354 7.49063 0.67604 7.86902 0.51104C8.62414 0.271863 9.41638 0.175253 10.2061 0.22604H10.7329C11.2686 0.211938 11.8041 0.262291 12.328 0.37604C13.5893 0.64604 13.5448 1.67354 13.4929 2.85854C13.4929 3.20354 13.4558 3.60854 13.4558 4.07354C13.4558 4.18604 13.4558 4.30604 13.4558 4.43354C13.4266 4.76006 13.4492 5.0892 13.5226 5.40854C14.1402 4.8862 14.6604 4.25626 15.0584 3.54854C15.4879 2.87934 15.865 2.1772 16.1861 1.44854V1.44854C16.2839 1.21808 16.4516 1.02493 16.6649 0.896899C16.8782 0.768865 17.1262 0.712543 17.3732 0.73604H20.5487C20.6425 0.726994 20.7369 0.726994 20.8306 0.73604C21.5726 0.73604 22.0103 0.95354 22.1884 1.37354C22.3664 1.79354 22.3145 2.61854 20.4374 4.83104L19.6955 5.67854C19.336 6.03136 19.0264 6.43265 18.7755 6.87104C19.0565 7.19397 19.3754 7.48109 19.7251 7.72604C20.5778 8.37553 21.3283 9.15184 21.951 10.0285C22.097 10.199 22.1925 10.4076 22.2266 10.6305C22.2608 10.8534 22.2321 11.0814 22.1439 11.2885C21.9884 11.5179 21.7803 11.706 21.5375 11.8365C21.2946 11.9671 21.0241 12.0364 20.749 12.0385L17.9371 12.076L17.7664 12.046ZM13.8268 8.41604C14.4945 8.41604 15.0732 9.00854 15.689 9.63104C16.0217 9.99823 16.3951 10.3254 16.8019 10.606C17.1096 10.8129 17.4711 10.9225 17.8406 10.921H17.9148L20.7342 10.8835C20.8732 10.8755 21.0094 10.8398 21.1348 10.7785L21.0606 10.6585C20.499 9.88485 19.8292 9.19768 19.0722 8.61854C18.1893 7.86854 17.7368 7.51604 17.6848 6.93854C17.6329 6.36104 18.0484 5.85854 18.8793 4.90604L19.6213 4.07354C20.2477 3.42768 20.7618 2.6797 21.1422 1.86104C20.9767 1.85112 20.8107 1.85112 20.6451 1.86104H17.4029C17.3443 1.84779 17.2835 1.84779 17.2248 1.86104C16.8814 2.65712 16.4719 3.42236 16.0006 4.14854C14.5984 6.26354 13.938 6.54854 13.4706 6.54854C13.3257 6.54854 13.183 6.51248 13.0551 6.44354C12.3132 6.01604 12.3132 5.06354 12.3577 4.37354C12.3577 4.26104 12.3577 4.14854 12.3577 4.05104C12.3577 3.56354 12.3577 3.14354 12.3948 2.78354C12.4542 1.52354 12.3948 1.51604 12.1129 1.44854C11.6586 1.3578 11.1958 1.31756 10.7329 1.32854H10.221C9.74988 1.3187 9.27872 1.34377 8.81127 1.40354C8.88207 1.45627 8.94459 1.51948 8.99676 1.59104C9.30278 2.07879 9.4554 2.64884 9.4345 3.22604C9.53095 4.46354 9.47901 6.07604 8.69256 6.46604C8.5533 6.53192 8.40115 6.56524 8.2474 6.56354C7.5574 6.56354 6.87482 5.90354 5.70998 4.11854C5.26298 3.43507 4.86383 2.72083 4.51547 1.98104L4.45611 1.90604C4.38118 1.86743 4.30126 1.83966 4.21869 1.82354H1.25095H1.19901C1.63676 2.73854 3.71418 6.78854 6.03643 8.91104C7.34044 10.1221 9.02994 10.8217 10.7997 10.8835H12.1722C12.2422 10.8684 12.3097 10.8432 12.3726 10.8085C12.3726 10.8085 12.3726 10.8085 12.3726 10.741C12.3726 10.5385 12.3726 8.79104 13.5448 8.49104C13.6356 8.45491 13.7302 8.42974 13.8268 8.41604V8.41604Z" fill="#192144"/>
</svg>
